<svg width="2700" height="700" viewBox="0 0 2700 700" fill="none" xmlns="http://www.w3.org/2000/svg">
<path d="M0.000100459 29.6796L0 700L2700 700L2700 29.6797L2699.89 29.7864L2686.86 16.757C2677.49 7.38446 2662.3 7.38446 2652.92 16.757L2639.89 29.7864L2626.86 16.757C2617.49 7.38446 2602.3 7.38446 2592.92 16.757L2579.89 29.7864L2566.86 16.757C2557.49 7.38445 2542.3 7.38445 2532.92 16.757L2519.89 29.7864L2506.86 16.757C2497.49 7.38445 2482.3 7.38445 2472.92 16.757L2459.89 29.7864L2446.86 16.757C2437.49 7.38445 2422.3 7.38445 2412.92 16.757L2399.89 29.7864L2386.86 16.757C2377.49 7.38444 2362.3 7.38444 2352.92 16.757L2339.89 29.7864L2326.86 16.757C2317.49 7.38444 2302.3 7.38444 2292.92 16.757L2279.89 29.7864L2266.86 16.757C2257.49 7.38444 2242.3 7.38444 2232.92 16.757L2219.89 29.7864L2206.86 16.757C2197.49 7.38443 2182.3 7.38443 2172.92 16.757L2159.89 29.7864L2146.86 16.757C2137.49 7.38443 2122.3 7.38443 2112.92 16.757L2099.89 29.7864L2086.86 16.757C2077.49 7.38443 2062.3 7.38443 2052.92 16.757L2039.89 29.7864L2026.86 16.757C2017.49 7.38443 2002.3 7.38442 1992.92 16.757L1979.89 29.7864L1966.86 16.757C1957.49 7.38442 1942.3 7.38442 1932.92 16.757L1919.89 29.7864L1906.86 16.757C1897.49 7.38442 1882.3 7.38442 1872.92 16.757L1859.89 29.7864L1846.86 16.757C1837.49 7.38442 1822.3 7.38442 1812.92 16.757L1799.89 29.7864L1786.86 16.757C1777.49 7.38441 1762.3 7.38441 1752.92 16.757L1739.89 29.7864L1726.86 16.757C1717.49 7.38441 1702.3 7.38441 1692.92 16.757L1679.89 29.7864L1666.86 16.757C1657.49 7.38441 1642.3 7.38441 1632.92 16.757L1619.89 29.7864L1606.86 16.757C1597.49 7.3844 1582.3 7.3844 1572.92 16.757L1559.89 29.7864L1546.86 16.757C1537.49 7.3844 1522.3 7.3844 1512.92 16.757L1499.89 29.7864L1486.86 16.757C1477.49 7.3844 1462.3 7.3844 1452.92 16.757L1439.89 29.7864L1426.86 16.757C1417.49 7.3844 1402.3 7.38439 1392.92 16.757L1379.89 29.7864L1366.86 16.757C1357.49 7.38439 1342.3 7.38439 1332.92 16.7569L1319.89 29.7864L1306.86 16.7569C1297.49 7.38439 1282.3 7.38439 1272.92 16.7569L1259.89 29.7864L1246.86 16.7569C1237.49 7.38439 1222.3 7.38439 1212.92 16.7569L1199.89 29.7864L1186.86 16.7569C1177.49 7.38438 1162.3 7.38438 1152.92 16.7569L1139.89 29.7864L1126.86 16.7569C1117.49 7.38438 1102.3 7.38438 1092.92 16.7569L1079.89 29.7864L1066.86 16.7569C1057.49 7.38438 1042.3 7.38438 1032.92 16.7569L1019.89 29.7864L1006.86 16.7569C997.491 7.38437 982.295 7.38437 972.923 16.7569L959.894 29.7863L946.864 16.7569C937.491 7.38437 922.295 7.38437 912.923 16.7569L899.894 29.7863L886.864 16.7569C877.491 7.38437 862.295 7.38437 852.923 16.7569L839.894 29.7863L826.864 16.7569C817.491 7.38436 802.295 7.38436 792.923 16.7569L779.894 29.7863L766.864 16.7569C757.491 7.38436 742.295 7.38436 732.923 16.7569L719.894 29.7863L706.864 16.7569C697.491 7.38436 682.295 7.38436 672.923 16.7569L659.894 29.7863L646.864 16.7569C637.491 7.38436 622.295 7.38435 612.923 16.7569L599.893 29.7863L586.864 16.7569C577.491 7.38435 562.295 7.38435 552.923 16.7569L539.893 29.7863L526.864 16.7569C517.491 7.38435 502.295 7.38435 492.923 16.7569L479.893 29.7863L466.864 16.7569C457.491 7.38435 442.295 7.38435 432.923 16.7569L419.893 29.7863L406.864 16.7569C397.491 7.38434 382.295 7.38434 372.923 16.7569L359.893 29.7863L346.864 16.7569C337.491 7.38434 322.295 7.38434 312.923 16.7569L299.893 29.7863L286.864 16.7569C277.491 7.38434 262.295 7.38434 252.923 16.7569L239.893 29.7863L226.864 16.7569C217.491 7.38433 202.295 7.38433 192.923 16.7569L179.893 29.7863L166.864 16.7569C157.491 7.38433 142.295 7.38433 132.923 16.7569L119.893 29.7863L106.864 16.7569C97.4913 7.38433 82.2953 7.38433 72.9227 16.7569L59.8934 29.7863L46.8639 16.7569C37.4913 7.38432 22.2953 7.38432 12.9227 16.7569L0.000100459 29.6796Z" fill="#99CBCF"/>
<path d="M0.000100427 29.8931L0 700L2700 700L2700 29.8932L2699.89 29.7865L2669.89 59.7865L2639.89 29.7865L2609.89 59.7865L2579.89 29.7865L2549.89 59.7865L2519.89 29.7865L2489.89 59.7865L2459.89 29.7865L2429.89 59.7865L2399.89 29.7865L2369.89 59.7865L2339.89 29.7865L2309.89 59.7865L2279.89 29.7865L2249.89 59.7865L2219.89 29.7865L2189.89 59.7865L2159.89 29.7865L2129.89 59.7865L2099.89 29.7865L2069.89 59.7865L2039.89 29.7865L2009.89 59.7865L1979.89 29.7865L1949.89 59.7865L1919.89 29.7865L1889.89 59.7865L1859.89 29.7865L1829.89 59.7865L1799.89 29.7865L1769.89 59.7865L1739.89 29.7865L1709.89 59.7864L1679.89 29.7864L1649.89 59.7864L1619.89 29.7864L1589.89 59.7864L1559.89 29.7864L1529.89 59.7864L1499.89 29.7864L1469.89 59.7864L1439.89 29.7864L1409.89 59.7863L1379.89 29.7864L1349.89 59.7864L1319.89 29.7864L1289.89 59.7864L1259.89 29.7864L1229.89 59.7864L1199.89 29.7864L1169.89 59.7864L1139.89 29.7864L1109.89 59.7864L1079.89 29.7864L1049.89 59.7864L1019.89 29.7864L989.893 59.7864L959.893 29.7864L929.893 59.7864L899.893 29.7864L869.893 59.7864L839.893 29.7864L809.893 59.7864L779.893 29.7864L749.893 59.7864L719.893 29.7864L689.893 59.7864L659.893 29.7864L629.893 59.7864L599.893 29.7864L569.893 59.7864L539.893 29.7864L509.893 59.7864L479.893 29.7864L449.893 59.7864L419.893 29.7864L389.893 59.7864L359.893 29.7864L329.893 59.7864L299.893 29.7864L269.893 59.7864L239.893 29.7864L209.893 59.7864L179.893 29.7864L149.893 59.7864L119.893 29.7864L89.8934 59.7864L59.8934 29.7864L29.8934 59.7864L0.000100427 29.8931Z" fill="#65B2B8"/>
<path d="M9.14672e-05 89.6797L0 700L2700 700L2700 89.6797L2699.89 89.7865L2669.89 59.7865L2639.89 89.7865L2609.89 59.7865L2579.89 89.7865L2549.89 59.7865L2519.89 89.7865L2489.89 59.7865L2459.89 89.7865L2429.89 59.7865L2399.89 89.7865L2369.89 59.7865L2339.89 89.7865L2309.89 59.7865L2279.89 89.7865L2249.89 59.7865L2219.89 89.7865L2189.89 59.7865L2159.89 89.7865L2129.89 59.7865L2099.89 89.7865L2069.89 59.7865L2039.89 89.7865L2009.89 59.7865L1979.89 89.7865L1949.89 59.7865L1919.89 89.7865L1889.89 59.7865L1859.89 89.7865L1829.89 59.7865L1799.89 89.7865L1769.89 59.7865L1739.89 89.7865L1709.89 59.7864L1679.89 89.7864L1649.89 59.7864L1619.89 89.7864L1589.89 59.7864L1559.89 89.7864L1529.89 59.7864L1499.89 89.7864L1469.89 59.7864L1439.89 89.7863L1409.89 59.7864L1379.89 89.7864L1349.89 59.7864L1319.89 89.7864L1289.89 59.7864L1259.89 89.7864L1229.89 59.7864L1199.89 89.7864L1169.89 59.7864L1139.89 89.7864L1109.89 59.7864L1079.89 89.7864L1049.89 59.7864L1019.89 89.7864L989.893 59.7864L959.893 89.7864L929.893 59.7864L899.893 89.7864L869.893 59.7864L839.893 89.7864L809.893 59.7864L779.893 89.7864L749.893 59.7864L719.893 89.7864L689.893 59.7864L659.893 89.7864L629.893 59.7864L599.893 89.7864L569.893 59.7864L539.893 89.7864L509.893 59.7864L479.893 89.7864L449.893 59.7864L419.893 89.7864L389.893 59.7864L359.893 89.7864L329.893 59.7864L299.893 89.7864L269.893 59.7864L239.893 89.7864L209.893 59.7864L179.893 89.7864L149.893 59.7864L119.893 89.7864L89.8934 59.7864L59.8934 89.7864L29.8934 59.7864L9.14672e-05 89.6797Z" fill="#4BA5AC"/>
<path d="M9.14352e-05 89.8931L0 700L2700 700L2700 89.8932L2699.89 89.7865L2669.89 119.786L2639.89 89.7865L2609.89 119.786L2579.89 89.7865L2549.89 119.786L2519.89 89.7865L2489.89 119.786L2459.89 89.7865L2429.89 119.786L2399.89 89.7865L2369.89 119.786L2339.89 89.7865L2309.89 119.786L2279.89 89.7865L2249.89 119.786L2219.89 89.7865L2189.89 119.786L2159.89 89.7865L2129.89 119.786L2099.89 89.7865L2069.89 119.786L2039.89 89.7865L2009.89 119.786L1979.89 89.7865L1949.89 119.786L1919.89 89.7865L1889.89 119.786L1859.89 89.7865L1829.89 119.786L1799.89 89.7865L1769.89 119.786L1739.89 89.7865L1709.89 119.786L1679.89 89.7864L1649.89 119.786L1619.89 89.7864L1589.89 119.786L1559.89 89.7864L1529.89 119.786L1499.89 89.7864L1469.89 119.786L1439.89 89.7864L1409.89 119.786L1379.89 89.7864L1349.89 119.786L1319.89 89.7864L1289.89 119.786L1259.89 89.7864L1229.89 119.786L1199.89 89.7864L1169.89 119.786L1139.89 89.7864L1109.89 119.786L1079.89 89.7864L1049.89 119.786L1019.89 89.7864L989.893 119.786L959.893 89.7864L929.893 119.786L899.893 89.7864L869.893 119.786L839.893 89.7864L809.893 119.786L779.893 89.7864L749.893 119.786L719.893 89.7864L689.893 119.786L659.893 89.7864L629.893 119.786L599.893 89.7864L569.893 119.786L539.893 89.7864L509.893 119.786L479.893 89.7864L449.893 119.786L419.893 89.7864L389.893 119.786L359.893 89.7864L329.893 119.786L299.893 89.7864L269.893 119.786L239.893 89.7864L209.893 119.786L179.893 89.7864L149.893 119.786L119.893 89.7864L89.8934 119.786L59.8934 89.7864L29.8934 119.786L9.14352e-05 89.8931Z" fill="#3F9FA6"/>
<path d="M8.24752e-05 149.68L0 700L2700 700L2700 149.68L2699.89 149.786L2669.89 119.786L2639.89 149.786L2609.89 119.786L2579.89 149.786L2549.89 119.786L2519.89 149.786L2489.89 119.786L2459.89 149.786L2429.89 119.786L2399.89 149.786L2369.89 119.786L2339.89 149.786L2309.89 119.786L2279.89 149.786L2249.89 119.786L2219.89 149.786L2189.89 119.786L2159.89 149.786L2129.89 119.786L2099.89 149.786L2069.89 119.786L2039.89 149.786L2009.89 119.786L1979.89 149.786L1949.89 119.786L1919.89 149.786L1889.89 119.786L1859.89 149.786L1829.89 119.786L1799.89 149.786L1769.89 119.786L1739.89 149.786L1709.89 119.786L1679.89 149.786L1649.89 119.786L1619.89 149.786L1589.89 119.786L1559.89 149.786L1529.89 119.786L1499.89 149.786L1469.89 119.786L1439.89 149.786L1409.89 119.786L1379.89 149.786L1349.89 119.786L1319.89 149.786L1289.89 119.786L1259.89 149.786L1229.89 119.786L1199.89 149.786L1169.89 119.786L1139.89 149.786L1109.89 119.786L1079.89 149.786L1049.89 119.786L1019.89 149.786L989.893 119.786L959.893 149.786L929.893 119.786L899.893 149.786L869.893 119.786L839.893 149.786L809.893 119.786L779.893 149.786L749.893 119.786L719.893 149.786L689.893 119.786L659.893 149.786L629.893 119.786L599.893 149.786L569.893 119.786L539.893 149.786L509.893 119.786L479.893 149.786L449.893 119.786L419.893 149.786L389.893 119.786L359.893 149.786L329.893 119.786L299.893 149.786L269.893 119.786L239.893 149.786L209.893 119.786L179.893 149.786L149.893 119.786L119.893 149.786L89.8934 119.786L59.8934 149.786L29.8934 119.786L8.24752e-05 149.68Z" fill="#3299A0"/>
</svg>
