<svg width="2700" height="700" viewBox="0 0 2700 700" fill="none" xmlns="http://www.w3.org/2000/svg">
<path d="M2700 670.32V0H0V670.32L0.10675 670.214L13.1362 683.243C22.5088 692.616 37.7047 692.616 47.0773 683.243L60.1068 670.214L73.1362 683.243C82.5088 692.616 97.7047 692.616 107.077 683.243L120.107 670.214L133.136 683.243C142.509 692.616 157.705 692.616 167.077 683.243L180.107 670.214L193.136 683.243C202.509 692.616 217.705 692.616 227.077 683.243L240.107 670.214L253.136 683.243C262.509 692.616 277.705 692.616 287.077 683.243L300.107 670.214L313.136 683.243C322.509 692.616 337.705 692.616 347.077 683.243L360.107 670.214L373.136 683.243C382.509 692.616 397.705 692.616 407.077 683.243L420.107 670.214L433.136 683.243C442.509 692.616 457.705 692.616 467.077 683.243L480.107 670.214L493.136 683.243C502.509 692.616 517.705 692.616 527.077 683.243L540.107 670.214L553.136 683.243C562.509 692.616 577.705 692.616 587.077 683.243L600.107 670.214L613.136 683.243C622.509 692.616 637.705 692.616 647.077 683.243L660.107 670.214L673.136 683.243C682.509 692.616 697.705 692.616 707.077 683.243L720.107 670.214L733.136 683.243C742.509 692.616 757.705 692.616 767.077 683.243L780.107 670.214L793.136 683.243C802.509 692.616 817.705 692.616 827.077 683.243L840.107 670.214L853.136 683.243C862.509 692.616 877.705 692.616 887.077 683.243L900.107 670.214L913.136 683.243C922.509 692.616 937.705 692.616 947.077 683.243L960.107 670.214L973.136 683.243C982.509 692.616 997.705 692.616 1007.08 683.243L1020.11 670.214L1033.14 683.243C1042.51 692.616 1057.7 692.616 1067.08 683.243L1080.11 670.214L1093.14 683.243C1102.51 692.616 1117.7 692.616 1127.08 683.243L1140.11 670.214L1153.14 683.243C1162.51 692.616 1177.7 692.616 1187.08 683.243L1200.11 670.214L1213.14 683.243C1222.51 692.616 1237.7 692.616 1247.08 683.243L1260.11 670.214L1273.14 683.243C1282.51 692.616 1297.7 692.616 1307.08 683.243L1320.11 670.214L1333.14 683.243C1342.51 692.616 1357.7 692.616 1367.08 683.243L1380.11 670.214L1393.14 683.243C1402.51 692.616 1417.7 692.616 1427.08 683.243L1440.11 670.214L1453.14 683.243C1462.51 692.616 1477.7 692.616 1487.08 683.243L1500.11 670.214L1513.14 683.243C1522.51 692.616 1537.7 692.616 1547.08 683.243L1560.11 670.214L1573.14 683.243C1582.51 692.616 1597.7 692.616 1607.08 683.243L1620.11 670.214L1633.14 683.243C1642.51 692.616 1657.7 692.616 1667.08 683.243L1680.11 670.214L1693.14 683.243C1702.51 692.616 1717.7 692.616 1727.08 683.243L1740.11 670.214L1753.14 683.243C1762.51 692.616 1777.7 692.616 1787.08 683.243L1800.11 670.214L1813.14 683.243C1822.51 692.616 1837.7 692.616 1847.08 683.243L1860.11 670.214L1873.14 683.243C1882.51 692.616 1897.7 692.616 1907.08 683.243L1920.11 670.214L1933.14 683.243C1942.51 692.616 1957.7 692.616 1967.08 683.243L1980.11 670.214L1993.14 683.243C2002.51 692.616 2017.7 692.616 2027.08 683.243L2040.11 670.214L2053.14 683.243C2062.51 692.616 2077.7 692.616 2087.08 683.243L2100.11 670.214L2113.14 683.243C2122.51 692.616 2137.7 692.616 2147.08 683.243L2160.11 670.214L2173.14 683.243C2182.51 692.616 2197.7 692.616 2207.08 683.243L2220.11 670.214L2233.14 683.243C2242.51 692.616 2257.7 692.616 2267.08 683.243L2280.11 670.214L2293.14 683.243C2302.51 692.616 2317.7 692.616 2327.08 683.243L2340.11 670.214L2353.14 683.243C2362.51 692.616 2377.7 692.616 2387.08 683.243L2400.11 670.214L2413.14 683.243C2422.51 692.616 2437.7 692.616 2447.08 683.243L2460.11 670.214L2473.14 683.243C2482.51 692.616 2497.7 692.616 2507.08 683.243L2520.11 670.214L2533.14 683.243C2542.51 692.616 2557.7 692.616 2567.08 683.243L2580.11 670.214L2593.14 683.243C2602.51 692.616 2617.7 692.616 2627.08 683.243L2640.11 670.214L2653.14 683.243C2662.51 692.616 2677.7 692.616 2687.08 683.243L2700 670.32Z" fill="#98C7B1"/>
<path d="M2700 670.107V0H0V670.107L0.10675 670.214L30.1068 640.214L60.1068 670.214L90.1068 640.214L120.107 670.214L150.107 640.214L180.107 670.214L210.107 640.214L240.107 670.214L270.107 640.214L300.107 670.214L330.107 640.214L360.107 670.214L390.107 640.214L420.107 670.214L450.107 640.214L480.107 670.214L510.107 640.214L540.107 670.214L570.107 640.214L600.107 670.214L630.107 640.214L660.107 670.214L690.107 640.214L720.107 670.214L750.107 640.214L780.107 670.214L810.107 640.214L840.107 670.214L870.107 640.214L900.107 670.214L930.107 640.214L960.107 670.214L990.107 640.214L1020.11 670.214L1050.11 640.214L1080.11 670.214L1110.11 640.214L1140.11 670.214L1170.11 640.214L1200.11 670.214L1230.11 640.214L1260.11 670.214L1290.11 640.214L1320.11 670.214L1350.11 640.214L1380.11 670.214L1410.11 640.214L1440.11 670.214L1470.11 640.214L1500.11 670.214L1530.11 640.214L1560.11 670.214L1590.11 640.214L1620.11 670.214L1650.11 640.214L1680.11 670.214L1710.11 640.214L1740.11 670.214L1770.11 640.214L1800.11 670.214L1830.11 640.214L1860.11 670.214L1890.11 640.214L1920.11 670.214L1950.11 640.214L1980.11 670.214L2010.11 640.214L2040.11 670.214L2070.11 640.214L2100.11 670.214L2130.11 640.214L2160.11 670.214L2190.11 640.214L2220.11 670.214L2250.11 640.214L2280.11 670.214L2310.11 640.214L2340.11 670.214L2370.11 640.214L2400.11 670.214L2430.11 640.214L2460.11 670.214L2490.11 640.214L2520.11 670.214L2550.11 640.214L2580.11 670.214L2610.11 640.214L2640.11 670.214L2670.11 640.214L2700 670.107Z" fill="#64AC8A"/>
<path d="M2700 610.32V0H0V610.32L0.10675 610.214L30.1068 640.214L60.1068 610.214L90.1068 640.214L120.107 610.214L150.107 640.214L180.107 610.214L210.107 640.214L240.107 610.214L270.107 640.214L300.107 610.214L330.107 640.214L360.107 610.214L390.107 640.214L420.107 610.214L450.107 640.214L480.107 610.214L510.107 640.214L540.107 610.214L570.107 640.214L600.107 610.214L630.107 640.214L660.107 610.214L690.107 640.214L720.107 610.214L750.107 640.214L780.107 610.214L810.107 640.214L840.107 610.214L870.107 640.214L900.107 610.214L930.107 640.214L960.107 610.214L990.107 640.214L1020.11 610.214L1050.11 640.214L1080.11 610.214L1110.11 640.214L1140.11 610.214L1170.11 640.214L1200.11 610.214L1230.11 640.214L1260.11 610.214L1290.11 640.214L1320.11 610.214L1350.11 640.214L1380.11 610.214L1410.11 640.214L1440.11 610.214L1470.11 640.214L1500.11 610.214L1530.11 640.214L1560.11 610.214L1590.11 640.214L1620.11 610.214L1650.11 640.214L1680.11 610.214L1710.11 640.214L1740.11 610.214L1770.11 640.214L1800.11 610.214L1830.11 640.214L1860.11 610.214L1890.11 640.214L1920.11 610.214L1950.11 640.214L1980.11 610.214L2010.11 640.214L2040.11 610.214L2070.11 640.214L2100.11 610.214L2130.11 640.214L2160.11 610.214L2190.11 640.214L2220.11 610.214L2250.11 640.214L2280.11 610.214L2310.11 640.214L2340.11 610.214L2370.11 640.214L2400.11 610.214L2430.11 640.214L2460.11 610.214L2490.11 640.214L2520.11 610.214L2550.11 640.214L2580.11 610.214L2610.11 640.214L2640.11 610.214L2670.11 640.214L2700 610.32Z" fill="#4A9E76"/>
<path d="M2700 610.107V0H0V610.107L0.10675 610.214L30.1068 580.214L60.1068 610.214L90.1068 580.214L120.107 610.214L150.107 580.214L180.107 610.214L210.107 580.214L240.107 610.214L270.107 580.214L300.107 610.214L330.107 580.214L360.107 610.214L390.107 580.214L420.107 610.214L450.107 580.214L480.107 610.214L510.107 580.214L540.107 610.214L570.107 580.214L600.107 610.214L630.107 580.214L660.107 610.214L690.107 580.214L720.107 610.214L750.107 580.214L780.107 610.214L810.107 580.214L840.107 610.214L870.107 580.214L900.107 610.214L930.107 580.214L960.107 610.214L990.107 580.214L1020.11 610.214L1050.11 580.214L1080.11 610.214L1110.11 580.214L1140.11 610.214L1170.11 580.214L1200.11 610.214L1230.11 580.214L1260.11 610.214L1290.11 580.214L1320.11 610.214L1350.11 580.214L1380.11 610.214L1410.11 580.214L1440.11 610.214L1470.11 580.214L1500.11 610.214L1530.11 580.214L1560.11 610.214L1590.11 580.214L1620.11 610.214L1650.11 580.214L1680.11 610.214L1710.11 580.214L1740.11 610.214L1770.11 580.214L1800.11 610.214L1830.11 580.214L1860.11 610.214L1890.11 580.214L1920.11 610.214L1950.11 580.214L1980.11 610.214L2010.11 580.214L2040.11 610.214L2070.11 580.214L2100.11 610.214L2130.11 580.214L2160.11 610.214L2190.11 580.214L2220.11 610.214L2250.11 580.214L2280.11 610.214L2310.11 580.214L2340.11 610.214L2370.11 580.214L2400.11 610.214L2430.11 580.214L2460.11 610.214L2490.11 580.214L2520.11 610.214L2550.11 580.214L2580.11 610.214L2610.11 580.214L2640.11 610.214L2670.11 580.214L2700 610.107Z" fill="#3D976C"/>
<path d="M2700 550.32V0H0V550.32L0.10675 550.214L30.1068 580.214L60.1068 550.214L90.1068 580.214L120.107 550.214L150.107 580.214L180.107 550.214L210.107 580.214L240.107 550.214L270.107 580.214L300.107 550.214L330.107 580.214L360.107 550.214L390.107 580.214L420.107 550.214L450.107 580.214L480.107 550.214L510.107 580.214L540.107 550.214L570.107 580.214L600.107 550.214L630.107 580.214L660.107 550.214L690.107 580.214L720.107 550.214L750.107 580.214L780.107 550.214L810.107 580.214L840.107 550.214L870.107 580.214L900.107 550.214L930.107 580.214L960.107 550.214L990.107 580.214L1020.11 550.214L1050.11 580.214L1080.11 550.214L1110.11 580.214L1140.11 550.214L1170.11 580.214L1200.11 550.214L1230.11 580.214L1260.11 550.214L1290.11 580.214L1320.11 550.214L1350.11 580.214L1380.11 550.214L1410.11 580.214L1440.11 550.214L1470.11 580.214L1500.11 550.214L1530.11 580.214L1560.11 550.214L1590.11 580.214L1620.11 550.214L1650.11 580.214L1680.11 550.214L1710.11 580.214L1740.11 550.214L1770.11 580.214L1800.11 550.214L1830.11 580.214L1860.11 550.214L1890.11 580.214L1920.11 550.214L1950.11 580.214L1980.11 550.214L2010.11 580.214L2040.11 550.214L2070.11 580.214L2100.11 550.214L2130.11 580.214L2160.11 550.214L2190.11 580.214L2220.11 550.214L2250.11 580.214L2280.11 550.214L2310.11 580.214L2340.11 550.214L2370.11 580.214L2400.11 550.214L2430.11 580.214L2460.11 550.214L2490.11 580.214L2520.11 550.214L2550.11 580.214L2580.11 550.214L2610.11 580.214L2640.11 550.214L2670.11 580.214L2700 550.32Z" fill="#379467"/>
</svg>
