<?xml version="1.0" encoding="utf-8"?>
<!-- Generator: Adobe Illustrator 24.2.0, SVG Export Plug-In . SVG Version: 6.00 Build 0)  -->
<svg version="1.1" id="Layer_1" xmlns="http://www.w3.org/2000/svg" xmlns:xlink="http://www.w3.org/1999/xlink" x="0px" y="0px"
	 viewBox="0 0 800 800" style="enable-background:new 0 0 800 800;" xml:space="preserve">
<style type="text/css">
	.st0{fill:#5EA885;}
</style>
<g>
	<path class="st0" d="M604.7,413l-36.3-162.1c-0.8-5.3-5.8-9-11.2-8.2c-0.5,0.1-1,0.2-1.4,0.3l-107.2,33.6c-3.4,1.1-5.9,3.9-6.6,7.4
		l-35,174.7c-2,10.2-16.5,10.6-19.1,0.5l-35.7-142.9c-1.3-5.2-6.6-8.5-11.8-7.2c-0.2,0-0.4,0.1-0.6,0.2l-82.3,25.9
		c-4.9,1.5-7.8,6.7-6.6,11.7l104.8,419.4c1.1,4.4,5,7.4,9.5,7.4h66.4c4.5,0,8.4-3.1,9.5-7.4l56.8-227c2.5-9.9,16.5-9.9,19,0
		l56.8,227c1.1,4.3,5,7.4,9.5,7.4h66c4.7,0,8.7-3.3,9.6-7.9l110.1-572.6c1-5.3-2.5-10.4-7.8-11.4c-1.8-0.3-3.6-0.2-5.2,0.4
		l-87.5,30.5c-3.2,1.2-5.5,4-6.2,7.3L624,413.3C621.9,424.1,606.4,423.8,604.7,413z"/>
	<path class="st0" d="M251.5,27L22.1,26.4C9.9,26.3,0,36.2,0,48.4c0,0.8,0,1.7,0.1,2.5L103.9,765c0.6,4.9,4.7,8.7,9.7,8.7h54.5
		c5,0,9.2-3.7,9.7-8.7l50.5-458.7c0.4-3.9,3.2-7.2,6.9-8.3l531.3-159c8-2.4,14.2-8.9,16.2-17l16.6-67.2c3-12.3-4.6-24.8-16.9-27.8
		c-1.8-0.4-3.6-0.6-5.4-0.7L251.5,27z M241.9,179.3l5.6-45.2c0.5-4.8,4.5-8.5,9.4-8.7l182.4-6.1c11.5-0.4,14.1,15.8,3.1,19.1
		l-187.9,51.3c-5.2,1.5-10.6-1.4-12.2-6.6C241.9,182,241.8,180.6,241.9,179.3L241.9,179.3z"/>
</g>
</svg>
